Coordinates
version=1
nRows=17
nColumns=36
inDegrees=yes

Units are S.I. units (second, meters, Newtons, ...)
If the header above contains a line with 'inDegrees', this indicates whether rotational values are in degrees (yes) or radians (no).

endheader
time	pelvis_tilt	pelvis_list	pelvis_rotation	pelvis_tx	pelvis_ty	pelvis_tz	hip_flexion_r	hip_adduction_r	hip_rotation_r	knee_angle_r	knee_angle_r_beta	ankle_angle_r	subtalar_angle_r	mtp_angle_r	hip_flexion_l	hip_adduction_l	hip_rotation_l	knee_angle_l	knee_angle_l_beta	ankle_angle_l	subtalar_angle_l	mtp_angle_l	lumbar_extension	lumbar_bending	lumbar_rotation	arm_flex_r	arm_add_r	arm_rot_r	elbow_flex_r	pro_sup_r	arm_flex_l	arm_add_l	arm_rot_l	elbow_flex_l	pro_sup_l
      5.93333330	     14.59920820	     19.24868380	     10.92635283	      0.01863289	      0.88082119	     -0.18231639	     43.17909174	    -23.18745796	     12.00928475	     33.15619181	      0.57868471	      1.62840389	     16.22871266	     -7.49999987	     18.18099845	     23.38533357	      1.98528415	     48.08982915	      0.83932586	     16.24342621	    -21.08804911	     -7.49999987	    -53.25768935	    -19.83067954	    -12.76786887	     69.39555707	     10.48438573	     56.62624427	    121.09759390	    101.70339363	     82.83189361	     -2.28334250	     60.65373343	    118.59527375	     94.13969204
      5.95000000	     14.26669362	     17.98727439	     10.42998998	      0.03032500	      0.88936099	     -0.18300390	     41.47605524	    -22.02311270	     11.13767727	     33.37084107	      0.58243105	      1.09053757	     15.43293934	     -7.49999987	     16.52467517	     22.62448609	      3.70720429	     45.71612328	      0.79789687	     16.54416991	    -20.96078882	     -7.49999987	    -50.81748066	    -19.29571091	    -10.99081666	     68.05900831	      9.91477631	     57.83638071	    121.59282416	    101.44687327	     81.00128042	     -1.39477844	     60.98956724	    118.70261516	     94.36771321
      5.96666670	     13.71940092	     16.55239655	      9.99525645	      0.03070918	      0.89196879	     -0.18285905	     39.87131931	    -20.62506405	     10.40191824	     34.08790335	      0.59494615	      0.09231672	     13.90469675	     -7.49999987	     15.14491874	     21.60999076	      5.36426094	     43.21150130	      0.75418297	     16.34941042	    -21.04879837	     -7.49999987	    -48.42441638	    -18.52583115	     -9.35112928	     67.46013343	      9.55956654	     58.99235871	    123.19345646	    101.12239236	     80.00168277	     -0.80334767	     61.17348032	    118.40204204	     94.71162894
      5.98333330	     13.09352899	     15.04233525	      9.80471861	      0.03241782	      0.90233794	     -0.18386051	     38.09046441	    -19.22678594	      9.53658867	     34.81628304	      0.60765877	     -0.87530719	     12.45764511	     -7.49999987	     13.72606123	     20.42963040	      7.14222937	     40.37218497	      0.70462755	     15.48360591	    -21.17907613	     -7.49999987	    -46.24889505	    -17.40914977	     -7.78880201	     66.25292534	      8.91761337	     60.65960401	    124.45038915	    100.84235170	     78.56905551	     -0.04822478	     61.55653481	    117.39423165	     95.25650366
      6.00000000	     12.09271048	     13.34550122	      9.84851027	      0.03368816	      0.90558153	     -0.18537454	     36.89709248	    -17.73740701	      8.68144352	     36.05666010	      0.62930744	     -1.05539384	     10.93728135	     -7.49999987	     13.06743038	     18.95994281	      8.50329272	     37.99355113	      0.66311256	     15.08101889	    -20.63851276	     -7.49999987	    -43.65407684	    -15.92807853	     -6.17210066	     65.27022544	      7.86716269	     63.05356581	    125.47397264	    100.35051152	     77.17941394	      0.51677307	     61.84169877	    116.44184552	     95.19817080
      6.01666670	     11.13191009	     11.66392462	      9.93361185	      0.04098213	      0.91069954	     -0.18409419	     35.91191252	    -16.09811781	      7.91215669	     37.67804534	      0.65760595	     -0.26757971	      9.36096277	     -7.49999987	     12.45959590	     17.43324385	      9.83272325	     35.64598808	      0.62213986	     14.28873559	    -20.50440699	     -7.49999987	    -41.07475848	    -14.41552761	     -4.68563299	     64.52227814	      6.98362035	     64.39661882	    126.11074461	    100.81497246	     76.29921911	      0.93297658	     61.36935545	    116.13846788	     96.24429198
      6.03333330	     10.30720451	      9.84955793	      9.78513525	      0.04685024	      0.91782507	     -0.18246934	     34.48815353	    -14.27500145	      7.21286747	     39.06977018	      0.68189613	      1.23070734	      8.30183282	     -7.49999987	     11.59812725	     15.54707291	     10.82527204	     33.11045146	      0.57788639	     13.65690406	    -19.65516376	     -7.49999987	    -38.42994619	    -12.67881681	     -3.19775898	     63.39420998	      6.44303857	     64.51878883	    126.57950287	    103.50328797	     74.83058598	      0.72214746	     60.89453533	    116.97795871	    102.00085674
      6.05000000	      9.61198018	      8.31576414	      9.53008272	      0.04920816	      0.92207616	     -0.18415082	     33.52509677	    -12.54744350	      6.68314141	     40.81675958	      0.71238684	      3.21115825	      7.22442409	     -7.49999987	     11.05104589	     13.83630421	     11.18602076	     30.97848597	      0.54067658	     13.00993180	    -18.66089457	     -7.49999987	    -36.06820736	    -11.27405336	     -2.14564834	     62.11180682	      6.20417133	     64.89445145	    126.50138217	    102.72393494	     73.43183562	      0.49723955	     60.40118213	    116.82734740	    101.32558080
      6.06666670	      9.08672279	      6.80187412	      9.25527779	      0.06065503	      0.92653572	     -0.18606162	     32.24821733	    -10.79919996	      5.91789693	     42.36316157	      0.73937665	      5.10246235	      6.20975510	     -7.49999987	     10.08341436	     12.08730610	     11.50856252	     28.53968297	      0.49811144	     12.06979733	    -17.93988013	     -7.49999987	    -33.43381617	     -9.42161044	     -0.81052610	     60.37457552	      6.02819556	     65.32904668	    126.32656790	    102.69837300	     70.78376916	      0.38030094	     59.06143051	    117.18724340	    101.56301955
      6.08333330	      8.68138557	      5.39856363	      8.92363681	      0.06780428	      0.92665114	     -0.18271189	     30.99623336	     -9.05747898	      5.17889959	     44.27515464	      0.77274723	      7.18339871	      5.20626500	     -7.49999987	      8.87070123	     10.30327158	     11.65179787	     25.85686038	      0.45128735	     10.89032415	    -17.15562066	     -7.49999987	    -30.76822555	     -7.86904244	      0.24779864	     58.41322174	      5.53828238	     65.05589555	    125.99234133	    102.43010880	     68.53225123	     -0.17796974	     58.50711723	    117.54434311	    101.70254333
      6.10000000	      8.38110435	      4.20792434	      8.51619521	      0.06855498	      0.92646963	     -0.18392341	     29.78213214	     -7.64700996	      4.48554252	     46.21856827	      0.80666619	      9.01870555	      4.29987006	     -7.49999987	      7.86303495	      8.76341633	     11.61051764	     23.59401173	      0.41179319	      9.64718832	    -16.25401122	     -7.49999987	    -28.34499420	     -6.59709682	      0.85130596	     56.86852783	      4.88974142	     64.41787875	    125.70423388	    102.20010160	     67.11462991	     -0.97879103	     58.22197440	    117.47096339	    101.73596896
      6.11666670	      8.09498061	      3.22409678	      8.16983650	      0.07531044	      0.92945928	     -0.18076832	     28.43465976	     -6.40757597	      3.76639711	     47.67432124	      0.83207387	     10.54614908	      3.42141768	     -7.49999987	      6.96087236	      7.28875406	     11.23749558	     21.36621774	      0.37291085	      8.66331006	    -15.40545203	     -7.49999987	    -26.05852225	     -5.47838500	      1.44072489	     55.62509121	      4.15920455	     63.93649241	    125.67817729	    101.90482458	     65.52509472	     -1.66732839	     58.15846545	    117.36023484	    101.70217240
      6.13333330	      7.95275433	      2.27845147	      7.87364803	      0.08671968	      0.92957747	     -0.18154053	     26.80301820	     -5.20895661	      2.93564533	     48.66028708	      0.84928222	     11.93404212	      2.88062872	     -7.49999987	      5.62389015	      5.75100378	     10.52048079	     18.87582720	      0.32944533	      7.39920504	    -14.54966202	     -7.49999987	    -23.62978532	     -4.37174988	      2.22426167	     53.92981092	      4.23551282	     63.40151737	    125.52292900	    101.79121083	     63.69629555	     -1.20056959	     59.13742614	    118.17186413	    101.94136984
      6.15000000	      7.94742063	      1.42848908	      7.55200180	      0.08860409	      0.92946359	     -0.18205854	     24.91058454	     -4.13167084	      2.27174398	     49.03010995	      0.85573685	     13.09887216	      2.31403060	     -7.49999987	      4.06419001	      4.42493938	      9.49002957	     16.62945040	      0.29023866	      5.85323476	    -13.05883735	     -7.49999987	    -21.56044984	     -3.42579720	      3.42382885	     52.86484261	      4.01619587	     61.56212266	    126.54973888	    101.80803079	     62.98090555	      0.21111505	     59.88403765	    118.13903094	    104.58897353
      6.16666670	      7.96927526	      0.53328859	      7.39458803	      0.09990676	      0.92538000	     -0.18251916	     22.46847666	     -3.14564646	      1.53395823	     48.28964659	      0.84281333	     13.82330234	      1.75556312	     -7.49999987	      2.22871918	      3.15576234	      8.56781820	     14.13259919	      0.24666039	      4.12204020	    -11.77527940	     -7.49999987	    -19.25099437	     -2.12097506	      3.90438809	     52.11302062	      4.29153457	     60.67683113	    126.65718872	    101.94717365	     61.85096296	      0.96722564	     59.87506740	    118.59682094	    105.29212775
      6.18333330	      8.12373504	     -0.03672752	      7.29024369	      0.10111913	      0.92531440	     -0.18325449	     19.82839165	     -2.54451570	      1.11256856	     46.77296558	      0.81634225	     14.19813066	      1.34752400	     -7.49999987	      0.64701729	      2.28143549	      7.27395416	     12.03025136	      0.20996750	      2.99978197	    -10.09334971	     -7.49999987	    -17.71050961	     -1.21814537	      4.25119354	     51.52764729	      4.03597200	     59.48496770	    126.98699478	     99.12286646	     61.24798122	      1.76222901	     59.79796321	    119.40627605	    103.32992869
      6.20000000	      8.20663520	     -0.37877147	      7.40803745	      0.10694139	      0.92796285	     -0.18765056	     17.07445402	     -2.29717185	      0.58136859	     44.42524089	      0.77536672	     14.30611661	      1.10762844	     -7.49999987	     -0.76562722	      1.77311839	      6.24631284	     10.07751684	      0.17588585	      1.97012629	     -8.37317570	     -7.49999987	    -16.25150577	     -0.46700059	      4.20294845	     50.42567791	      3.58731444	     59.88875522	    126.60303074	     99.06557355	     60.14494051	      2.26879700	     60.27767423	    119.10013758	    103.58578259
